<?xml version="1.0" encoding="iso-8859-1"?>
<!-- Uploaded to: SVG Repo, www.svgrepo.com, Generator: SVG Repo Mixer Tools -->
<svg fill="#000000" version="1.1" id="Layer_1" xmlns="http://www.w3.org/2000/svg" xmlns:xlink="http://www.w3.org/1999/xlink" 
	 viewBox="0 0 512 512" xml:space="preserve">
<g>
	<g>
		<rect x="122.435" y="311.652" width="100.174" height="100.174"/>
	</g>
</g>
<g>
	<g>
		<path d="M105.736,278.261h116.87v-16.696c0-36.065-19.337-69.022-50.087-86.777V16.696C172.518,7.473,165.04,0,155.823,0H89.04
			c-9.217,0-16.696,7.473-16.696,16.696v158.092c-30.75,17.755-50.087,50.712-50.087,86.777v233.739
			c0,9.223,7.479,16.696,16.696,16.696H205.91c9.217,0,16.696-7.473,16.696-16.696v-50.087h-116.87
			c-9.217,0-16.696-7.473-16.696-16.696V294.957C89.04,285.734,96.519,278.261,105.736,278.261z M105.736,33.391h33.391v50.087
			h-33.391V33.391z"/>
	</g>
</g>
<g>
	<g>
		<path d="M489.658,295.737c1.107-23.93-8.655-55.233-29.682-78.704c-3.163-3.533-7.684-5.554-12.435-5.554H298.193
			c-4.75,0-9.272,2.021-12.435,5.554c-20.752,23.161-30.81,54.391-29.682,78.703c0.406,57.922,42.778,106.617,100.095,114.776
			v68.097h-50.087c-9.217,0-16.696,7.473-16.696,16.696c0,9.223,7.479,16.696,16.696,16.696H439.65
			c9.217,0,16.696-7.473,16.696-16.696c0-9.223-7.479-16.696-16.696-16.696h-50.087v-68.099
			C446.899,402.341,489.25,353.634,489.658,295.737z M291.065,278.261c2.403-11.837,7.38-23.269,14.997-33.391h133.609
			c7.618,10.122,12.594,21.555,14.997,33.391H291.065z"/>
	</g>
</g>
</svg>