<?xml version="1.0" encoding="UTF-8"?>
<svg version="1.1" xmlns="http://www.w3.org/2000/svg" width="512" height="512">
<path d="M0 0 C3.57064806 3.43525008 7.0242088 6.98546565 10.48672485 10.52911377 C11.23906906 11.29637787 11.99141327 12.06364197 12.76655579 12.85415649 C15.89367263 16.04444344 19.01967209 19.23530665 22.12246704 22.44927979 C24.41774448 24.82301001 26.73147901 27.17734513 29.04922485 29.52911377 C29.74619476 30.26018845 30.44316467 30.99126312 31.16125488 31.74449158 C35.03931386 35.73985676 35.03931386 35.73985676 40.24136353 37.31744385 C45.78213992 36.22370025 49.2037327 31.64936336 52.71328735 27.47442627 C57.88162734 21.53086943 63.46028828 15.98472098 69.01870728 10.40924072 C70.91055872 8.50773328 72.79141809 6.59578835 74.67227173 4.68341064 C84.75224357 -5.48630269 95.37767725 -15.61741694 108.30703735 -22.07635498 C109.01094604 -22.43801758 109.71485474 -22.79968018 110.44009399 -23.17230225 C134.69687477 -35.27759611 162.79403232 -37.41350535 188.70376587 -29.43450928 C215.58437571 -20.44675245 237.12122896 -1.29142465 249.92373657 23.86309814 C262.0402585 48.65911928 262.71189294 76.2186506 254.74453735 102.29864502 C252.74621255 107.92267292 250.34761949 113.24160802 247.61953735 118.54864502 C247.28550903 119.20928955 246.95148071 119.86993408 246.60733032 120.55059814 C240.58101788 131.75849028 231.29659776 140.65333628 222.30703735 149.48614502 C221.28768244 150.49543143 220.26879986 151.50519512 219.25039673 152.51544189 C216.79550146 154.9486731 214.33438053 157.37548645 211.86953735 159.79864502 C209.77345814 156.23017871 209.10391637 152.5369919 208.3890686 148.51739502 C208.11299015 147.03337318 207.83661025 145.54940739 207.55996704 144.06549072 C207.41700195 143.28759186 207.27403687 142.50969299 207.1267395 141.70822144 C204.79749324 129.08742149 202.25738195 116.55756178 199.11953735 104.11114502 C198.69765137 102.43278564 198.69765137 102.43278564 198.26724243 100.72052002 C197.49916201 97.73697258 196.69448819 94.76690165 195.86953735 91.79864502 C195.52632446 90.48452637 195.52632446 90.48452637 195.17617798 89.14385986 C194.83103149 87.94237305 194.83103149 87.94237305 194.47891235 86.71661377 C194.28780884 86.02720703 194.09670532 85.33780029 193.89981079 84.62750244 C192.3165709 81.81706405 190.83358127 81.14547791 187.86953735 79.79864502 C184.31122705 79.35206398 180.77413198 79.38896713 177.19180298 79.41046143 C176.11645798 79.40520447 175.04111298 79.39994751 173.93318176 79.39453125 C170.38056897 79.38133351 166.82840467 79.39006888 163.27578735 79.40020752 C160.80626337 79.39818673 158.33673996 79.39527525 155.86721802 79.39151001 C150.69231483 79.38708695 145.51756701 79.39351735 140.34268188 79.40753174 C133.7079761 79.42462337 127.07363438 79.41478212 120.43894196 79.39681435 C115.33974462 79.38597618 110.24063365 79.38942306 105.14143372 79.39719772 C102.69499163 79.39919963 100.24854171 79.39674082 97.80210876 79.38975906 C94.38361828 79.38214432 90.96571822 79.39374992 87.54727173 79.41046143 C86.53517136 79.40438873 85.52307098 79.39831604 84.4803009 79.39205933 C77.67813017 79.43977468 77.67813017 79.43977468 71.86953735 82.79864502 C70.6794287 84.82658764 70.6794287 84.82658764 70.09609985 87.21661377 C69.83232544 88.12395264 69.56855103 89.0312915 69.29678345 89.96612549 C69.03204224 90.96273193 68.76730103 91.95933838 68.49453735 92.98614502 C68.05682007 94.57 68.05682007 94.57 67.61026001 96.18585205 C47.94328224 167.57899964 47.94328224 167.57899964 63.86953735 236.79864502 C72.73316073 251.61154848 85.52986956 261.38447225 100.86953735 268.79864502 C99.25330472 272.85467216 96.36801059 275.5682003 93.31826782 278.57696533 C92.75226868 279.14325653 92.18626953 279.70954773 91.6031189 280.29299927 C89.73569015 282.1590374 87.86128273 284.01789598 85.98672485 285.87677002 C84.68877324 287.17099056 83.3912632 288.46565407 82.09417725 289.76074219 C78.682389 293.16490148 75.26463683 296.56301136 71.84561157 299.9598999 C68.35647816 303.42855908 64.87301348 306.90290085 61.3890686 310.37677002 C54.55476368 317.18963803 47.71414533 323.99612922 40.86953735 330.79864502 C36.8246435 329.18195287 34.1031142 326.31410645 31.09121704 323.27911377 C30.52492584 322.71632721 29.95863464 322.15354065 29.37518311 321.57369995 C27.50887033 319.71617458 25.64995018 317.8514472 23.79141235 315.98614502 C22.4970476 314.6931274 21.20238608 313.4004068 19.90744019 312.10797119 C17.19752957 309.40100747 14.49126581 306.69046291 11.7875061 303.97735596 C8.31490064 300.49333349 4.83336414 297.01839599 1.3490715 293.54606628 C-1.32415975 290.88004588 -3.99262908 288.20930034 -6.65966034 285.53707886 C-7.94206512 284.25333661 -9.22596632 282.97108746 -10.51136017 281.69033813 C-12.30235337 279.90439986 -14.08685022 278.11221854 -15.86972046 276.31817627 C-16.40577911 275.78616608 -16.94183777 275.25415588 -17.49414062 274.70602417 C-21.13046265 271.02717651 -21.13046265 271.02717651 -21.13046265 268.79864502 C-20.30804077 268.38614502 -19.4856189 267.97364502 -18.63827515 267.54864502 C-3.2264551 259.57578661 9.22573388 249.02820351 17.86953735 233.79864502 C18.33231079 232.98524658 18.79508423 232.17184814 19.2718811 231.33380127 C39.68030229 193.06025759 23.06313413 137.45079737 12.61953735 97.79864502 C12.12598755 95.91121582 12.12598755 95.91121582 11.62246704 93.98565674 C11.30696899 92.83081787 10.99147095 91.675979 10.66641235 90.48614502 C10.39151978 89.47938721 10.1166272 88.47262939 9.83340454 87.43536377 C8.8411933 84.72110809 7.82537752 82.91817919 5.86953735 80.79864502 C3.03016476 79.85218749 1.27143987 79.66902055 -1.67156982 79.65820312 C-2.60243912 79.65249298 -3.53330841 79.64678284 -4.49238586 79.64089966 C-5.51167679 79.6397818 -6.53096771 79.63866394 -7.58114624 79.63751221 C-8.65619919 79.6325473 -9.73125214 79.6275824 -10.83888245 79.62246704 C-14.40222814 79.60783839 -17.96552933 79.60104257 -21.52890015 79.59552002 C-24.00128176 79.58976959 -26.47366335 79.58401184 -28.94604492 79.57824707 C-34.13284514 79.56773538 -39.31962984 79.56189366 -44.50643921 79.55841064 C-51.15687904 79.55292256 -57.80704851 79.52888847 -64.4574337 79.50043869 C-69.56519167 79.48182842 -74.67290022 79.47660758 -79.78068924 79.47507477 C-82.23272444 79.47204458 -84.6847587 79.46400379 -87.13676071 79.45088959 C-90.56499611 79.43386158 -93.99272963 79.43570155 -97.42098999 79.44219971 C-98.43623245 79.43298492 -99.45147491 79.42377014 -100.4974823 79.41427612 C-107.3244525 79.42229115 -107.3244525 79.42229115 -113.13046265 82.79864502 C-114.59666047 85.60686418 -114.59666047 85.60686418 -115.50546265 89.11114502 C-115.80335693 90.13582886 -115.80335693 90.13582886 -116.10726929 91.18121338 C-122.45245546 113.72718184 -126.86082795 136.78860931 -131.13046265 159.79864502 C-136.91025857 154.98214842 -142.29485949 149.85053189 -147.63046265 144.54864502 C-148.85442749 143.35561768 -148.85442749 143.35561768 -150.1031189 142.13848877 C-169.72734052 122.64026536 -180.09185075 96.58752158 -180.44296265 69.04864502 C-180.3432608 45.46915898 -172.72522387 21.725956 -157.13046265 3.79864502 C-156.4653064 3.00200439 -155.80015015 2.20536377 -155.11483765 1.38458252 C-137.13541725 -19.50517571 -112.8454086 -31.36989367 -85.50546265 -33.88885498 C-51.67531444 -35.86380417 -24.39078 -22.91772279 0 0 Z " fill="#000000" transform="translate(216.13046264648438,65.20135498046875)"/>
<path d="M0 0 C32.67 0 65.34 0 99 0 C107.17741635 30.37326072 107.17741635 30.37326072 109.75 44.1875 C109.89341827 44.94051392 110.03683655 45.69352783 110.18460083 46.46936035 C116.28391024 78.5038771 116.28391024 78.5038771 116 93 C89.53899337 105.02325068 61.55597472 107.3139455 33.38964844 100.49951172 C22.59169933 97.94478717 11.7552553 96.4734873 0.75 95.125 C-0.57843933 94.96156601 -0.57843933 94.96156601 -1.93371582 94.79483032 C-6.95396483 94.18030033 -11.9759757 93.58282437 -17 93 C-16.4713833 82.89356548 -15.46189851 73.00331935 -13.875 63 C-13.71609787 61.98717453 -13.71609787 61.98717453 -13.5539856 60.95388794 C-10.29354235 40.33005921 -5.38030145 20.17613045 0 0 Z " fill="#000000" transform="translate(299,159)"/>
<path d="M0 0 C32.67 0 65.34 0 99 0 C109.37828947 41.51315789 109.37828947 41.51315789 111.4375 54.25 C111.66745297 55.58874261 111.89858906 56.9272825 112.13085938 58.265625 C116.19043987 81.99168968 116.19043987 81.99168968 116 93 C115.39639648 93.10546143 114.79279297 93.21092285 114.17089844 93.31958008 C99.25140574 95.87906804 99.25140574 95.87906804 84.53515625 99.38671875 C70.73260501 102.72570264 57.24678103 100.4010687 44 96 C41.86011971 95.32072879 39.71769001 94.65007637 37.57446289 93.98144531 C36.18665138 93.547011 34.80031507 93.10782521 33.41577148 92.66308594 C17.91256402 87.71814834 2.35176699 89.31545345 -13 94 C-14.33175325 94.33959117 -15.66477199 94.67433905 -17 95 C-17.37722441 86.25834812 -16.24698447 77.75344867 -15 69.125 C-14.89317902 68.37465485 -14.78635803 67.62430969 -14.67630005 66.85122681 C-12.92390023 54.68458351 -10.6263947 42.68038752 -7.9375 30.6875 C-7.77209717 29.94735657 -7.60669434 29.20721313 -7.4362793 28.44464111 C-5.27469849 18.84841073 -2.70835418 9.47923964 0 0 Z " fill="#000000" transform="translate(114,159)"/>
<path d="M0 0 C22.57786312 7.6489212 41.53823239 7.63402535 64.68457031 2.08398438 C66.3605127 1.68469727 66.3605127 1.68469727 68.0703125 1.27734375 C69.56715576 0.90984009 69.56715576 0.90984009 71.09423828 0.53491211 C74.12537526 -0.02307992 76.92494479 -0.09336519 80 0 C78.17537963 13.58933681 73.60033757 24.33558142 65 35 C64.54109375 35.63421875 64.0821875 36.2684375 63.609375 36.921875 C54.3784761 49.04438079 37.89194502 56.15390762 23.3125 58.625 C3.67556381 60.65640719 -13.9192896 56.0168298 -29.5625 44 C-40.16042968 34.83517934 -49.57385775 22.12722413 -52 8 C-52.03749637 6.33375518 -52.04684733 4.66600813 -52 3 C-35.39783166 -6.25890157 -17.62713769 -6.13890237 0 0 Z " fill="#000000" transform="translate(150,267)"/>
<path d="M0 0 C16.22386399 0.74327339 32.27643058 2.55122156 48.07739258 6.35717773 C75.44402372 12.87724166 101.85056478 11.45077277 128.2265625 1.953125 C131 1 131 1 133 1 C130.07567082 19.32579618 121.78018485 34.80713449 106.80078125 46.15234375 C90.04993344 57.20276357 71.89044049 61.43568684 52.10546875 57.75 C33.70117284 53.30518891 19.16833666 42.81983709 9 27 C4.05110998 18.42277869 0.8969597 9.86655671 0 0 Z " fill="#000000" transform="translate(282,267)"/>
<path d="M0 0 C0.07476562 0.67804688 0.14953125 1.35609375 0.2265625 2.0546875 C1.38876585 10.28126413 3.77306719 17.22623189 10.11328125 22.88671875 C17.18160967 27.92854886 23.798288 29.75084453 32.4140625 28.59765625 C40.27377719 26.78113609 46.68983795 22.87913281 51 16 C53.63548747 10.83278441 54.48787859 5.73575984 55 0 C71.03003179 1.72806016 87.61607878 4.55614108 100.890625 14.40234375 C102.50551832 16.72801758 102.42734647 18.23735618 102 21 C92.6076739 32.80425274 69.81103698 35.57868186 55.7507019 37.35409546 C47.375717 38.29622342 38.99425081 38.33578896 30.57495117 38.31567383 C27.83276171 38.31252328 25.09166597 38.33604553 22.34960938 38.36132812 C6.20272146 38.42008938 -10.22794778 37.16568514 -25.6875 32.1875 C-26.50782715 31.93250732 -27.3281543 31.67751465 -28.17333984 31.41479492 C-35.35402317 29.08239361 -42.68158824 26.47761764 -47 20 C-46.82873726 17.0376175 -46.50836695 15.52476589 -44.42578125 13.375 C-32.10664539 5.35959183 -14.83261114 0 0 0 Z " fill="#000000" transform="translate(321,442)"/>
<path d="M0 0 C0.14695312 1.051875 0.14695312 1.051875 0.296875 2.125 C1.72237387 11.16954458 3.74784031 17.97395176 11.15625 23.75 C17.61984333 28.13209717 24.87792922 29.79814416 32.58203125 28.59765625 C40.43425737 26.55921352 46.58541185 22.80340314 50.875 15.8125 C53.42545111 10.7802968 54.30401118 5.55752266 55 0 C70.67275934 1.68954569 88.26697572 4.1899759 100.875 14.5390625 C102 16 102 16 102.25 18.8125 C100.24765088 23.91849025 96.82881092 25.6464108 92 28 C75.32187275 34.8964942 57.45927219 38.11073189 39.453125 38.203125 C38.11528961 38.21167511 38.11528961 38.21167511 36.75042725 38.22039795 C34.86797243 38.22979074 32.9855016 38.23635898 31.10302734 38.24023438 C28.29883917 38.24983283 25.49541973 38.2808665 22.69140625 38.3125 C0.31624229 38.44399922 -27.17471253 36.63701848 -45.8203125 22.6328125 C-47.51134624 20.29224262 -47.44020643 18.81732116 -47 16 C-37.76017545 4.69480291 -14.02249907 0 0 0 Z " fill="#000000" transform="translate(136,442)"/>
<path d="M0 0 C8.25 0 16.5 0 25 0 C25.11295175 14.10819435 25.20468856 28.2160885 25.25906086 42.32463264 C25.28515656 48.87577231 25.3205555 55.42658664 25.37719727 61.97753906 C25.43151593 68.29935785 25.46142073 74.62086366 25.47438622 80.9428978 C25.48362619 83.35507001 25.50166968 85.76722505 25.52865028 88.17926407 C25.56493692 91.55754894 25.56994526 94.93453995 25.56762695 98.31298828 C25.58560333 99.31064713 25.60357971 100.30830597 25.62210083 101.3361969 C25.58861212 105.84495501 25.50020901 108.99513989 22.59172058 112.58151245 C19.64740602 115.32902627 17.86489317 116.89991629 13.81640625 117.1171875 C8.76627854 116.57453946 5.62613008 115.84589554 2 112 C0.21412853 109.03326092 -0.24852042 106.8637797 -0.24050903 103.41888428 C-0.24325836 102.50465698 -0.24600769 101.59042969 -0.24884033 100.64849854 C-0.24164978 99.65299988 -0.23445923 98.65750122 -0.22705078 97.63183594 C-0.22734283 96.57786621 -0.22763489 95.52389648 -0.22793579 94.43798828 C-0.22654217 90.95336685 -0.21097922 87.46895909 -0.1953125 83.984375 C-0.19158249 81.56870643 -0.18873546 79.15303635 -0.18673706 76.73736572 C-0.17909968 70.37841619 -0.15945018 64.01955798 -0.1373291 57.66064453 C-0.116873 51.17221309 -0.10773584 44.68376689 -0.09765625 38.1953125 C-0.07620447 25.46349508 -0.04102136 12.73176942 0 0 Z " fill="#000000" transform="translate(336,340)"/>
<path d="M0 0 C8.25 0 16.5 0 25 0 C25.09036333 13.9778164 25.1637523 27.95543884 25.20724869 41.93348122 C25.22812459 48.42402624 25.25644303 54.91436109 25.30175781 61.40478516 C25.34521434 67.66823773 25.36913708 73.93148811 25.37950897 80.1950798 C25.3869006 82.58490558 25.4013346 84.97472027 25.42292023 87.36445999 C25.45195063 90.71147844 25.45595601 94.05766109 25.45410156 97.40478516 C25.46848267 98.39309326 25.48286377 99.38140137 25.49768066 100.3996582 C25.46349299 106.10092169 24.9144855 109.53294201 21 114 C16.94891762 116.64201025 13.8162435 117.70236884 9 117 C5.10407783 114.86106234 2.35888408 112.76237624 0 109 C-0.36914349 106.80551529 -0.36914349 106.80551529 -0.36076355 104.38092041 C-0.36488754 103.45827896 -0.36901154 102.53563751 -0.3732605 101.58503723 C-0.36247467 100.58018784 -0.35168884 99.57533844 -0.34057617 98.54003906 C-0.34101425 97.47631577 -0.34145233 96.41259247 -0.34190369 95.31663513 C-0.33981309 91.79944527 -0.31646861 88.28273163 -0.29296875 84.765625 C-0.28737378 82.32753764 -0.28310321 79.88944691 -0.28010559 77.45135498 C-0.26864913 71.0331695 -0.23917477 64.61518756 -0.20599365 58.19708252 C-0.1753102 51.64834344 -0.16160393 45.09957149 -0.14648438 38.55078125 C-0.11430604 25.700417 -0.06153129 12.85025727 0 0 Z " fill="#000000" transform="translate(151,340)"/>
</svg>
